<svg xmlns="http://www.w3.org/2000/svg" viewBox="0 0 120 40" role="img" aria-labelledby="title desc">
  <title id="title">Shopify wordmark</title>
  <desc id="desc">Simplified horizontal Shopify wordmark with bag icon in green gradient.</desc>
  <defs>
    <linearGradient id="bag" x1="0" y1="0" x2="1" y2="1">
      <stop offset="0%" stop-color="#96e6b3" />
      <stop offset="100%" stop-color="#36a269" />
    </linearGradient>
  </defs>
  <rect width="120" height="40" rx="8" fill="#ffffff" />
  <g transform="translate(8 6)">
    <path d="M12 0c-3 0-5.6 2.1-6.6 5L0 7.2V26a2 2 0 0 0 2 2h16a2 2 0 0 0 2-2V4c0-2.2-1.8-4-4-4h-4zm-1.4 4c.8 0 1.4.6 1.4 1.4V8h-6l1-2.2C7.5 4.8 8.7 4 10 4.1h.6z" fill="url(#bag)" />
    <path d="M24 6c-3.3 0-5.4 1.7-5.4 4.6 0 3.4 3.4 4.2 5.5 4.6 1.6.3 2.3.7 2.3 1.4 0 .8-.7 1.3-2.1 1.3-1.4 0-2.9-.4-4.2-1.3l-1.5 3c1.5 1 3.4 1.6 5.6 1.6 3.5 0 5.7-1.7 5.7-4.7 0-3.4-3.1-4.2-5.2-4.6-1.7-.3-2.6-.6-2.6-1.4 0-.7.7-1.2 1.8-1.2 1.2 0 2.5.4 3.7 1.1l1.4-2.9C27.8 6.4 26 6 24 6zm12.4 0c-3.4 0-6 2.2-6 5.9 0 3.6 2.3 5.9 5.7 5.9 1.6 0 2.9-.6 3.7-1.5V26h4.2V6.3H40l-.2 1.7c-.8-1-2.2-2-3.4-2zM52 6.3V18h4.2V6.3H52zm8 0v7.3c0 3.9 2.1 5.5 4.9 5.5 1.5 0 2.7-.6 3.5-1.5l.1 1.3h3.9V6.3h-4.2v6.7c0 1.5-.8 2.5-2.1 2.5-1.3 0-1.9-.9-1.9-2.3V6.3H60zm20.2 0c-3.7 0-6.3 2.5-6.3 5.9 0 3.4 2.4 5.9 5.8 5.9 1.5 0 3-.6 3.9-1.7l.1 1.4h4V6.3h-4.2v6.7c0 1.4-.9 2.4-2.3 2.4-1.4 0-2.3-1-2.3-2.5 0-1.4.9-2.4 2.3-2.4.9 0 1.6.3 2.2.9l1.5-3c-.9-.9-2.3-1.4-3.7-1.4zm16.8.1c-1.8 0-3.3.7-4.2 1.9l-.1-1.6h-3.9V18h4.2v-6.7c0-1.4.9-2.4 2.3-2.4 1.3 0 2.2.9 2.2 2.3V18h4.2v-7.3c0-3.9-2.1-5.5-4.7-5.5z" fill="#0e6f43" />
  </g>
</svg>
