<svg xmlns="http://www.w3.org/2000/svg" viewBox="0 0 120 120" role="img" aria-labelledby="title">
  <title>Shopify Icon</title>
  <path
    d="M46.8 33.5c-6 0-11 4.8-12.3 11.4l-6.5 44.1c-.5 3.4 1.8 6.5 5.1 6.5h36.4c2.2 0 4.1-1.6 4.6-3.8l8-36.3c.6-2.7-1.5-5.2-4.3-5.2h-7.2c.5-2.6.8-4.1.8-4.1 1.2-5.1-2.7-9.6-7.7-9.6H59c-.3-3.8-5.8-4-11.6-4Zm1.2 7.4c2.7 0 4.6 1.7 4.1 4.4l-.8 3.8H43.8c.5-3.5 2.3-8.2 4.2-8.2Zm17.1 0c1.5 0 2.6 1.3 2.3 2.8l-.8 3.8H59l.8-3.8c.3-1.5 2-2.8 3.6-2.8Zm-9.4 18.8c4.7 0 7.8 2.2 7.8 6.4 0 3.2-2.1 5.3-5.3 5.3-2.2 0-3.8-1-5.6-3.2l-3.4 2.9c2.1 3 5.1 4.8 9.4 4.8 6.1 0 10.5-4.2 10.5-9.7 0-6.1-4.7-9.9-11.8-9.9-2.3 0-4.2.3-5.8.9l1.9-8.7h-6.5l-2.3 10.5c2.7-1.5 6.7-3.9 13.9-3.9Z"
    fill="#95bf47" />
</svg>
