<svg width="720" height="540" viewBox="0 0 720 540" fill="none" xmlns="http://www.w3.org/2000/svg">
  <defs>
    <linearGradient id="health-bg" x1="80" y1="80" x2="640" y2="460" gradientUnits="userSpaceOnUse">
      <stop offset="0" stop-color="#162B6B" />
      <stop offset="0.45" stop-color="#133B80" />
      <stop offset="1" stop-color="#05091F" />
    </linearGradient>
    <linearGradient id="pulse" x1="200" y1="160" x2="520" y2="420" gradientUnits="userSpaceOnUse">
      <stop offset="0" stop-color="#4BE9F5" />
      <stop offset="1" stop-color="#7D6BFF" />
    </linearGradient>
  </defs>
  <rect width="720" height="540" rx="34" fill="url(#health-bg)" />
  <rect x="120" y="120" width="480" height="300" rx="28" fill="rgba(8,12,38,0.85)" stroke="rgba(255,255,255,0.12)" stroke-width="2" />

  <g opacity="0.18" stroke="rgba(255,255,255,0.6)" stroke-width="1.5">
    <path d="M160 270H560" />
    <path d="M360 150V390" />
    <circle cx="360" cy="270" r="130" />
    <circle cx="360" cy="270" r="90" />
  </g>

  <path d="M170 270H230L260 224L320 320L356 190L388 340L428 260L470 320L520 230L548 270H570" stroke="url(#pulse)" stroke-width="6" stroke-linejoin="round" stroke-linecap="round" fill="none" />

  <g fill="#F5F7FF">
    <circle cx="260" cy="224" r="9" />
    <circle cx="320" cy="320" r="9" />
    <circle cx="356" cy="190" r="9" />
    <circle cx="388" cy="340" r="9" />
    <circle cx="428" cy="260" r="9" />
    <circle cx="470" cy="320" r="9" />
    <circle cx="520" cy="230" r="9" />
  </g>

  <g fill="rgba(75,233,245,0.22)">
    <rect x="200" y="160" width="70" height="20" rx="10" />
    <rect x="470" y="150" width="90" height="20" rx="10" />
    <rect x="210" y="360" width="90" height="20" rx="10" />
    <rect x="460" y="360" width="80" height="20" rx="10" />
  </g>

  <g opacity="0.3" fill="#F5F7FF">
    <circle cx="140" cy="140" r="3" />
    <circle cx="600" cy="160" r="4" />
    <circle cx="620" cy="400" r="3" />
    <circle cx="200" cy="420" r="3" />
    <circle cx="360" cy="100" r="4" />
  </g>
</svg>
