<svg width="720" height="540" viewBox="0 0 720 540" fill="none" xmlns="http://www.w3.org/2000/svg">
  <defs>
    <linearGradient id="climate-bg" x1="80" y1="40" x2="620" y2="480" gradientUnits="userSpaceOnUse">
      <stop offset="0" stop-color="#123143" />
      <stop offset="0.5" stop-color="#1F485C" />
      <stop offset="1" stop-color="#050B16" />
    </linearGradient>
    <linearGradient id="wave" x1="140" y1="220" x2="600" y2="360" gradientUnits="userSpaceOnUse">
      <stop offset="0" stop-color="#4BE9F5" />
      <stop offset="1" stop-color="#85FFBD" />
    </linearGradient>
  </defs>
  <rect width="720" height="540" rx="34" fill="url(#climate-bg)" />
  <path d="M120 360C200 320 260 240 340 230C420 220 480 300 560 290C600 286 640 260 660 240" stroke="url(#wave)" stroke-width="8" stroke-linecap="round" fill="none" />
  <path d="M160 360C220 310 280 280 340 280C400 280 460 310 520 330C560 344 620 340 660 320" stroke="rgba(255,255,255,0.18)" stroke-width="3" stroke-dasharray="12 14" />

  <g opacity="0.5">
    <circle cx="240" cy="180" r="80" fill="rgba(75,233,245,0.26)" />
    <circle cx="520" cy="190" r="100" fill="rgba(133,255,189,0.22)" />
  </g>

  <g fill="#F5F7FF" opacity="0.9">
    <circle cx="200" cy="360" r="8" />
    <circle cx="320" cy="280" r="8" />
    <circle cx="440" cy="320" r="8" />
    <circle cx="560" cy="290" r="8" />
    <circle cx="640" cy="250" r="8" />
  </g>

  <g fill="rgba(255,255,255,0.18)">
    <rect x="180" y="400" width="120" height="16" rx="8" />
    <rect x="340" y="420" width="180" height="16" rx="8" />
    <rect x="540" y="400" width="100" height="16" rx="8" />
  </g>

  <g opacity="0.35" fill="#F5F7FF">
    <circle cx="160" cy="120" r="3" />
    <circle cx="260" cy="80" r="4" />
    <circle cx="480" cy="60" r="3" />
    <circle cx="620" cy="120" r="4" />
    <circle cx="640" cy="420" r="3" />
  </g>
</svg>
