<svg width="720" height="540" viewBox="0 0 720 540" fill="none" xmlns="http://www.w3.org/2000/svg">
  <defs>
    <linearGradient id="logistics-bg" x1="60" y1="60" x2="640" y2="480" gradientUnits="userSpaceOnUse">
      <stop offset="0" stop-color="#211A55" />
      <stop offset="0.5" stop-color="#1D2C76" />
      <stop offset="1" stop-color="#05071C" />
    </linearGradient>
    <linearGradient id="route" x1="120" y1="180" x2="600" y2="360" gradientUnits="userSpaceOnUse">
      <stop offset="0" stop-color="#4BE9F5" />
      <stop offset="1" stop-color="#FF7EDB" />
    </linearGradient>
  </defs>
  <rect width="720" height="540" rx="34" fill="url(#logistics-bg)" />
  <rect x="120" y="140" width="480" height="260" rx="30" fill="rgba(8,12,36,0.88)" stroke="rgba(255,255,255,0.12)" stroke-width="2" />

  <g stroke="rgba(255,255,255,0.1)" stroke-width="1">
    <line x1="200" y1="160" x2="200" y2="380" />
    <line x1="320" y1="160" x2="320" y2="380" />
    <line x1="440" y1="160" x2="440" y2="380" />
    <line x1="560" y1="160" x2="560" y2="380" />
    <line x1="150" y1="220" x2="600" y2="220" />
    <line x1="150" y1="300" x2="600" y2="300" />
  </g>

  <path d="M160 340L220 240L300 320L360 220L420 260L480 200L560 260L600 200" stroke="url(#route)" stroke-width="6" stroke-linecap="round" stroke-linejoin="round" fill="none" />

  <g fill="#F5F7FF">
    <circle cx="220" cy="240" r="8" />
    <circle cx="300" cy="320" r="8" />
    <circle cx="360" cy="220" r="8" />
    <circle cx="420" cy="260" r="8" />
    <circle cx="480" cy="200" r="8" />
    <circle cx="560" cy="260" r="8" />
    <circle cx="600" cy="200" r="8" />
  </g>

  <g opacity="0.32" fill="#F5F7FF">
    <rect x="190" y="360" width="140" height="16" rx="8" />
    <rect x="360" y="380" width="180" height="16" rx="8" />
    <rect x="560" y="340" width="80" height="16" rx="8" />
  </g>

  <g opacity="0.28" fill="#F5F7FF">
    <circle cx="140" cy="160" r="3" />
    <circle cx="260" cy="120" r="3" />
    <circle cx="520" cy="120" r="4" />
    <circle cx="620" cy="160" r="3" />
    <circle cx="640" cy="420" r="4" />
  </g>
</svg>
